<svg width="69" height="66" viewBox="0 0 69 66" fill="none" xmlns="http://www.w3.org/2000/svg">
<path d="M39.1813 46.5049L30.4597 42.2793L26.7716 40.4923C28.3823 39.4617 29.6905 37.871 30.5465 35.955C31.2605 34.3578 31.6299 32.6238 31.6298 30.8696C31.6298 29.8361 31.4683 28.8547 31.2433 27.9077C30.1461 23.319 26.6179 19.9385 22.3824 19.9385C18.227 19.9385 14.7523 23.1985 13.5872 27.6566C13.3182 28.6793 13.1333 29.7428 13.1333 30.8696C13.1333 32.8263 13.5833 34.6506 14.348 36.2373C15.2318 38.078 16.5423 39.5957 18.1374 40.5715L14.6053 42.242L5.60068 46.5015C4.81874 46.8737 4.30469 47.7698 4.30469 48.7704V58.8197C4.30469 60.1666 5.22865 61.2583 6.36926 61.2583H19.743V53.564C19.7449 53.4846 19.7678 53.4072 19.8093 53.34L19.8037 53.3366L21.9942 49.4832L21.9998 49.4866C22.0777 49.3508 22.2164 49.2547 22.3824 49.2547C22.5483 49.2547 22.687 49.3503 22.765 49.4866L22.7672 49.4849L22.7873 49.5205C22.79 49.5262 22.794 49.5307 22.7962 49.5364L24.9577 53.3383L24.9549 53.34C24.9964 53.4074 25.0193 53.485 25.0211 53.5646V61.2589H38.3949C39.5355 61.2589 40.4601 60.1671 40.4601 58.8203V48.7704C40.4617 47.7732 39.956 46.8856 39.1813 46.5049ZM24.9565 43.9283L24.9621 43.9316L22.7711 47.785L22.7655 47.7816C22.7275 47.8511 22.6721 47.909 22.6049 47.9497C22.5377 47.9903 22.4611 48.0121 22.3829 48.013C22.3047 48.0121 22.2281 47.9903 22.1609 47.9497C22.0937 47.909 22.0383 47.8511 22.0003 47.7816L21.9975 47.7833L21.9752 47.7443C21.9736 47.7404 21.9702 47.737 21.9686 47.733L19.8071 43.93L19.8093 43.9283C19.7678 43.8608 19.7449 43.7832 19.743 43.7037C19.743 43.452 19.9441 43.2477 20.1919 43.2477H24.5728C24.8206 43.2477 25.0217 43.452 25.0217 43.7037C25.0208 43.7832 24.9982 43.8609 24.9565 43.9283Z" fill="#141414"/>
<line x1="1.72168" y1="1.72168" x2="25.963" y2="1.72168" stroke="black" stroke-width="2"/>
<line x1="1" y1="1" x2="0.999999" y2="25.2413" stroke="black" stroke-width="2"/>
<line x1="66.4229" y1="64.1182" x2="42.1815" y2="64.1182" stroke="black" stroke-width="2"/>
<line x1="67.1445" y1="64.8398" x2="67.1445" y2="40.5985" stroke="black" stroke-width="2"/>
<path d="M42.8793 44.9034L42.6052 42.6996C42.4567 42.6422 42.3169 42.5733 42.1858 42.493C42.0547 42.4127 41.9261 42.3266 41.8 42.2347L39.7614 43.0956L37.877 39.8244L39.6415 38.4815C39.63 38.4011 39.6243 38.3238 39.6243 38.2494V38.017V37.7845C39.6243 37.7097 39.63 37.6321 39.6415 37.5518L37.877 36.2089L39.7614 32.9377L41.8 33.7985C41.9256 33.7067 42.057 33.6206 42.194 33.5402C42.3311 33.4599 42.4681 33.391 42.6052 33.3336L42.8793 31.1299H46.6481L46.9222 33.3336C47.0707 33.391 47.2107 33.4599 47.3423 33.5402C47.4738 33.6206 47.6022 33.7067 47.7274 33.7985L49.766 32.9377L51.6504 36.2089L49.8859 37.5518C49.8973 37.6321 49.903 37.7097 49.903 37.7845V38.2487C49.903 38.3235 49.8916 38.4011 49.8688 38.4815L51.6333 39.8244L49.7489 43.0956L47.7274 42.2347C47.6018 42.3266 47.4704 42.4127 47.3334 42.493C47.1963 42.5733 47.0593 42.6422 46.9222 42.6996L46.6481 44.9034H42.8793ZM44.0784 43.526H45.4318L45.6716 41.701C46.0257 41.6092 46.3541 41.4745 46.657 41.2968C46.9599 41.1191 47.2367 40.9038 47.4875 40.6508L49.1835 41.3567L49.8517 40.1859L48.3784 39.0668C48.4355 38.9062 48.4754 38.737 48.4983 38.5593C48.5211 38.3816 48.5326 38.2007 48.5326 38.0166C48.5326 37.8325 48.5211 37.6519 48.4983 37.4746C48.4754 37.2974 48.4355 37.128 48.3784 36.9664L49.8517 35.8473L49.1835 34.6766L47.4875 35.3997C47.2363 35.1357 46.9595 34.9148 46.657 34.7372C46.3546 34.5595 46.0261 34.4245 45.6716 34.3322L45.4489 32.5072H44.0956L43.8557 34.3322C43.5017 34.424 43.1735 34.559 42.871 34.7372C42.5686 34.9153 42.2915 35.1304 42.0398 35.3824L40.3438 34.6766L39.6757 35.8473L41.149 36.9492C41.0919 37.1213 41.0519 37.2935 41.0291 37.4657C41.0063 37.6378 40.9948 37.8215 40.9948 38.0166C40.9948 38.2003 41.0063 38.3782 41.0291 38.5503C41.0519 38.7225 41.0919 38.8947 41.149 39.0668L39.6757 40.1859L40.3438 41.3567L42.0398 40.6336C42.2911 40.8976 42.5682 41.1186 42.871 41.2968C43.1739 41.4749 43.5022 41.6097 43.8557 41.701L44.0784 43.526ZM44.798 40.427C45.4604 40.427 46.0257 40.1917 46.4939 39.7211C46.9622 39.2505 47.1963 38.6823 47.1963 38.0166C47.1963 37.3509 46.9622 36.7827 46.4939 36.3122C46.0257 35.8416 45.4604 35.6063 44.798 35.6063C44.1241 35.6063 43.5558 35.8416 43.0931 36.3122C42.6303 36.7827 42.3991 37.3509 42.3996 38.0166C42.4 38.6823 42.6314 39.2505 43.0937 39.7211C43.5561 40.1917 44.1241 40.427 44.798 40.427Z" fill="black"/>
<path d="M41.1576 24.2432L40.8835 22.0394C40.735 21.9821 40.5952 21.9132 40.4641 21.8328C40.333 21.7525 40.2044 21.6664 40.0783 21.5746L38.0397 22.4354L36.1553 19.1642L37.9198 17.8213C37.9084 17.741 37.9027 17.6636 37.9027 17.5892V17.3568V17.1244C37.9027 17.0495 37.9084 16.972 37.9198 16.8916L36.1553 15.5487L38.0397 12.2775L40.0783 13.1383C40.2039 13.0465 40.3353 12.9604 40.4723 12.8801C40.6094 12.7997 40.7464 12.7309 40.8835 12.6735L41.1576 10.4697H44.9264L45.2005 12.6735C45.349 12.7309 45.489 12.7997 45.6206 12.8801C45.7522 12.9604 45.8805 13.0465 46.0057 13.1383L48.0443 12.2775L49.9287 15.5487L48.1642 16.8916C48.1757 16.972 48.1814 17.0495 48.1814 17.1244V17.5885C48.1814 17.6634 48.1699 17.741 48.1471 17.8213L49.9116 19.1642L48.0272 22.4354L46.0057 21.5746C45.8801 21.6664 45.7487 21.7525 45.6117 21.8328C45.4746 21.9132 45.3376 21.9821 45.2005 22.0394L44.9264 24.2432H41.1576ZM42.3568 22.8659H43.7101L43.95 21.0409C44.304 20.949 44.6325 20.8143 44.9353 20.6366C45.2382 20.4589 45.5151 20.2436 45.7659 19.9906L47.4619 20.6965L48.13 19.5258L46.6567 18.4067C46.7138 18.246 46.7538 18.0768 46.7766 17.8991C46.7995 17.7215 46.8109 17.5406 46.8109 17.3565C46.8109 17.1724 46.7995 16.9917 46.7766 16.8145C46.7538 16.6373 46.7138 16.4678 46.6567 16.3062L48.13 15.1871L47.4619 14.0164L45.7659 14.7395C45.5146 14.4755 45.2378 14.2547 44.9353 14.077C44.6329 13.8993 44.3045 13.7643 43.95 13.6721L43.7273 11.8471H42.3739L42.1341 13.6721C41.78 13.7639 41.4518 13.8989 41.1494 14.077C40.8469 14.2551 40.5699 14.4702 40.3182 14.7223L38.6222 14.0164L37.954 15.1871L39.4273 16.289C39.3702 16.4612 39.3303 16.6334 39.3074 16.8055C39.2846 16.9777 39.2731 17.1613 39.2731 17.3565C39.2731 17.5401 39.2846 17.718 39.3074 17.8902C39.3303 18.0624 39.3702 18.2345 39.4273 18.4067L37.954 19.5258L38.6222 20.6965L40.3182 19.9734C40.5694 20.2374 40.8465 20.4585 41.1494 20.6366C41.4522 20.8148 41.7805 20.9495 42.1341 21.0409L42.3568 22.8659ZM43.0763 19.7668C43.7387 19.7668 44.304 19.5315 44.7723 19.0609C45.2405 18.5903 45.4746 18.0222 45.4746 17.3565C45.4746 16.6907 45.2405 16.1226 44.7723 15.652C44.304 15.1814 43.7387 14.9461 43.0763 14.9461C42.4024 14.9461 41.8341 15.1814 41.3714 15.652C40.9086 16.1226 40.6775 16.6907 40.6779 17.3565C40.6784 18.0222 40.9097 18.5903 41.3721 19.0609C41.8344 19.5315 42.4024 19.7668 43.0763 19.7668Z" fill="black"/>
<path d="M54.931 33.712L54.6569 31.5082C54.5084 31.4508 54.3687 31.3819 54.2375 31.3016C54.1064 31.2212 53.9778 31.1352 53.8518 31.0433L51.8131 31.9042L49.9287 28.633L51.6932 27.2901C51.6818 27.2097 51.6761 27.1324 51.6761 27.058V26.8256V26.5931C51.6761 26.5183 51.6818 26.4407 51.6932 26.3604L49.9287 25.0174L51.8131 21.7462L53.8518 22.6071C53.9774 22.5153 54.1087 22.4292 54.2458 22.3488C54.3828 22.2685 54.5199 22.1996 54.6569 22.1422L54.931 19.9385H58.6999L58.974 22.1422C59.1224 22.1996 59.2625 22.2685 59.394 22.3488C59.5256 22.4292 59.654 22.5153 59.7791 22.6071L61.8178 21.7462L63.7022 25.0174L61.9377 26.3604C61.9491 26.4407 61.9548 26.5183 61.9548 26.5931V27.0573C61.9548 27.1321 61.9434 27.2097 61.9205 27.2901L63.6851 28.633L61.8006 31.9042L59.7791 31.0433C59.6535 31.1352 59.5222 31.2212 59.3851 31.3016C59.2481 31.3819 59.111 31.4508 58.974 31.5082L58.6999 33.712H54.931ZM56.1302 32.3346H57.4836L57.7234 30.5096C58.0774 30.4178 58.4059 30.283 58.7088 30.1054C59.0117 29.9277 59.2885 29.7124 59.5393 29.4594L61.2353 30.1653L61.9034 28.9945L60.4301 27.8754C60.4872 27.7147 60.5272 27.5456 60.55 27.3679C60.5729 27.1902 60.5843 27.0093 60.5843 26.8252C60.5843 26.6411 60.5729 26.4604 60.55 26.2832C60.5272 26.106 60.4872 25.9366 60.4301 25.775L61.9034 24.6559L61.2353 23.4851L59.5393 24.2083C59.288 23.9443 59.0112 23.7234 58.7088 23.5457C58.4064 23.3681 58.0779 23.2331 57.7234 23.1408L57.5007 21.3158H56.1473L55.9075 23.1408C55.5535 23.2326 55.2252 23.3676 54.9228 23.5457C54.6204 23.7239 54.3433 23.939 54.0916 24.191L52.3956 23.4851L51.7275 24.6559L53.2008 25.7578C53.1437 25.9299 53.1037 26.1021 53.0808 26.2743C53.058 26.4464 53.0466 26.6301 53.0466 26.8252C53.0466 27.0089 53.058 27.1868 53.0808 27.3589C53.1037 27.5311 53.1437 27.7033 53.2008 27.8754L51.7275 28.9945L52.3956 30.1653L54.0916 29.4422C54.3428 29.7062 54.6199 29.9272 54.9228 30.1054C55.2257 30.2835 55.5539 30.4183 55.9075 30.5096L56.1302 32.3346ZM56.8497 29.2356C57.5121 29.2356 58.0774 29.0003 58.5457 28.5297C59.014 28.0591 59.2481 27.4909 59.2481 26.8252C59.2481 26.1595 59.014 25.5913 58.5457 25.1207C58.0774 24.6502 57.5121 24.4149 56.8497 24.4149C56.1759 24.4149 55.6076 24.6502 55.1448 25.1207C54.682 25.5913 54.4509 26.1595 54.4513 26.8252C54.4518 27.4909 54.6832 28.0591 55.1455 28.5297C55.6078 29.0003 56.1759 29.2356 56.8497 29.2356Z" fill="black"/>
</svg>
